<?xml version="1.0" encoding="utf-8"?>
<!-- Generator: Adobe Illustrator 16.0.0, SVG Export Plug-In . SVG Version: 6.00 Build 0)  -->
<!DOCTYPE svg PUBLIC "-//W3C//DTD SVG 1.1//EN" "http://www.w3.org/Graphics/SVG/1.1/DTD/svg11.dtd">
<svg version="1.1" id="Layer_1" xmlns="http://www.w3.org/2000/svg" xmlns:xlink="http://www.w3.org/1999/xlink" x="0px" y="0px"
	 width="18px" height="18px" viewBox="0 0 18 18" enable-background="new 0 0 18 18" xml:space="preserve">
<path fill="none" stroke="#000000" stroke-miterlimit="10" d="M4.504,9.693c0-3.59,1.994-6.495,4.458-6.495"/>
<path d="M8.184,11.886L7.331,8.181L4.108,8.414c-0.375,0.027-0.66,0.484-0.64,1.019l0.23,6.049c0.021,0.535,0.34,0.947,0.714,0.922
	l4.555-0.33l-1.26-2.701L8.184,11.886z"/>
<path d="M9.34,12.218l0.247,3.875l3.463,0.771c0.402,0.09,0.786-0.268,0.86-0.793l0.831-5.966c0.074-0.529-0.191-1.03-0.593-1.12
	L9.254,7.895l0.857,3.022L9.34,12.218z"/>
<path fill="none" stroke="#000000" stroke-miterlimit="10" d="M13.089,10.368c0.623-3.535-0.835-6.742-3.262-7.17"/>
<line fill="none" stroke="#000000" stroke-width="0.25" stroke-miterlimit="10" x1="10.107" y1="1.566" x2="9.619" y2="2.794"/>
<line fill="none" stroke="#000000" stroke-width="0.1" stroke-miterlimit="10" x1="9" y1="2.057" x2="9.194" y2="2.631"/>
</svg>
