<?xml version="1.0" encoding="utf-8"?>
<!-- Generator: Adobe Illustrator 16.0.0, SVG Export Plug-In . SVG Version: 6.00 Build 0)  -->
<!DOCTYPE svg PUBLIC "-//W3C//DTD SVG 1.1//EN" "http://www.w3.org/Graphics/SVG/1.1/DTD/svg11.dtd">
<svg version="1.1" id="Layer_1" xmlns="http://www.w3.org/2000/svg" xmlns:xlink="http://www.w3.org/1999/xlink" x="0px" y="0px"
	 width="18px" height="18px" viewBox="0 0 18 18" enable-background="new 0 0 18 18" xml:space="preserve">
<circle cx="15.067" cy="4.469" r="2.5"/>
<path fill="#FFFFFF" stroke="#000000" stroke-width="1.5" stroke-miterlimit="10" d="M15.512,12.678
	c-0.532,0.938-1.275,1.777-2.219,2.438C9.9,17.491,5.224,16.667,2.848,13.273C0.472,9.88,1.296,5.204,4.689,2.828
	c3.061-2.143,7.159-1.675,9.678,0.926l0.413-0.29C12.1,0.64,7.689,0.117,4.402,2.418C0.784,4.953-0.096,9.941,2.438,13.561
	c2.534,3.619,7.522,4.498,11.142,1.965c1.087-0.762,1.922-1.746,2.493-2.848H15.512z"/>
</svg>
